# xmcd
#
# Track frame offsets:
#	150
#	13950
#	24967
#	41280
#	50730
#	69265
#	82981
#	101469
#	115832
#	130982
#	140432
#	157232
#
# Disc length: 2266 seconds
#
# Revision: 0
# Processed by: cddbd v1.5.1PL0 Copyright (c) Steve Scherf et al.
# Submitted via: dBpowerAMP V4.0
#
DISCID=9a08d80c
DTITLE=Me - The wagon faire
DYEAR=2004
DGENRE=Country
TTITLE0=way out of hell
TTITLE1=how many times
TTITLE2=i know this much is true
TTITLE3=life at kimmermans'
TTITLE4=rust never sleeps
TTITLE5=could i bring you back
TTITLE6=rumspringa
TTITLE7=see me through
TTITLE8=your time will come
TTITLE9=300 years
TTITLE10=it's been a while
TTITLE11=for those who died of a broken heart
EXTD=If you like this album, you can buy it at your local record store.
EXTT0=
EXTT1=
EXTT2=
EXTT3=
EXTT4=
EXTT5=
EXTT6=
EXTT7=
EXTT8=
EXTT9=
EXTT10=
EXTT11=
PLAYORDER=
